<svg width="20" height="20" viewBox="0 0 20 20" fill="none" xmlns="http://www.w3.org/2000/svg">
<path d="M15.3845 16.9232C15.3845 17.3481 15.5352 17.7105 15.8354 18.0108C16.1357 18.3113 16.4984 18.4617 16.9234 18.4617C17.3478 18.4617 17.7106 18.3113 18.0108 18.0108C18.3114 17.7105 18.4617 17.3481 18.4617 16.9232C18.4617 16.4984 18.3115 16.1359 18.0108 15.8354C17.7106 15.5351 17.3478 15.3848 16.9234 15.3848C16.4984 15.3848 16.1357 15.5351 15.8354 15.8354C15.5352 16.1359 15.3845 16.4984 15.3845 16.9232Z" fill="white"/>
<path d="M19.7716 3.30505C19.6193 3.15278 19.4391 3.07663 19.2307 3.07663H4.7957C4.78757 3.02059 4.76956 2.91851 4.74152 2.77028C4.71348 2.62197 4.69151 2.50384 4.67547 2.41561C4.65934 2.32775 4.62946 2.22149 4.58529 2.0973C4.54122 1.97303 4.48914 1.87478 4.42907 1.80283C4.36908 1.73051 4.28897 1.66858 4.18878 1.61634C4.08867 1.56443 3.97441 1.53833 3.84627 1.53833H0.76938C0.560911 1.53833 0.380648 1.61461 0.228423 1.76667C0.076155 1.91889 0 2.09928 0 2.30758C0 2.51588 0.076155 2.69619 0.228423 2.84841C0.380775 3.00068 0.56108 3.07675 0.76938 3.07675H3.22103L5.34832 12.9687C5.3324 13.0007 5.25027 13.1528 5.10196 13.4254C4.95373 13.698 4.83557 13.9363 4.7475 14.1406C4.65939 14.3451 4.61531 14.5033 4.61531 14.6154C4.61531 14.8237 4.69146 15.004 4.84365 15.1565C4.99608 15.3083 5.17631 15.3847 5.38465 15.3847H6.15386H16.9231H17.6919C17.9002 15.3847 18.0805 15.3084 18.2327 15.1565C18.3851 15.0041 18.4612 14.8237 18.4612 14.6154C18.4612 14.407 18.3851 14.2267 18.2327 14.0746C18.0805 13.9224 17.9002 13.846 17.6919 13.846H6.63445C6.82683 13.4614 6.92299 13.2052 6.92299 13.077C6.92299 12.9966 6.91297 12.9084 6.89289 12.8125C6.87281 12.7166 6.84881 12.6102 6.82077 12.4939C6.79269 12.378 6.77476 12.2918 6.76676 12.2357L19.3152 10.7694C19.5152 10.7452 19.6796 10.6593 19.8078 10.5109C19.9361 10.3628 20 10.1925 20 10.0001V3.84613C19.9999 3.63783 19.924 3.45753 19.7716 3.30505Z" fill="white"/>
<path d="M4.61523 16.9232C4.61523 17.3481 4.7654 17.7105 5.06593 18.0108C5.36655 18.3113 5.72897 18.4617 6.15378 18.4617C6.57834 18.4617 6.94097 18.3113 7.24138 18.0108C7.54192 17.7105 7.69225 17.3481 7.69225 16.9232C7.69225 16.4984 7.54204 16.1359 7.24138 15.8354C6.94093 15.5351 6.57834 15.3848 6.15378 15.3848C5.72902 15.3848 5.36639 15.5351 5.06593 15.8354C4.76557 16.1359 4.61523 16.4984 4.61523 16.9232Z" fill="white"/>
</svg>
